<?xml version="1.0" encoding="UTF-8" standalone="no"?>
<!-- Created with Inkscape (http://www.inkscape.org/) -->

<svg
   xmlns:dc="http://purl.org/dc/elements/1.1/"
   xmlns:cc="http://creativecommons.org/ns#"
   xmlns:rdf="http://www.w3.org/1999/02/22-rdf-syntax-ns#"
   xmlns:svg="http://www.w3.org/2000/svg"
   xmlns="http://www.w3.org/2000/svg"
   xmlns:xlink="http://www.w3.org/1999/xlink"
   xmlns:sodipodi="http://sodipodi.sourceforge.net/DTD/sodipodi-0.dtd"
   xmlns:inkscape="http://www.inkscape.org/namespaces/inkscape"
   width="70"
   height="70"
   id="svg5973"
   version="1.1"
   inkscape:version="0.48.2 r9819"
   sodipodi:docname="heatsync labs logo - color - latest.svg"
   inkscape:export-filename="C:\Users\wbradley\Dropbox\HeatSync Operations\Marketing - Branding, logos, flyers, etc\Branding - Logos\heatsync labs icon - color - latest.png"
   inkscape:export-xdpi="300"
   inkscape:export-ydpi="300">
  <defs
     id="defs5975">
    <linearGradient
       y2="363.35178"
       x2="214.98698"
       y1="363.35178"
       x1="100.01301"
       gradientUnits="userSpaceOnUse"
       id="linearGradient4114"
       xlink:href="#linearGradient4082"
       inkscape:collect="always" />
    <linearGradient
       y2="363.35178"
       x2="214.98698"
       y1="363.35178"
       x1="100.01301"
       gradientUnits="userSpaceOnUse"
       id="linearGradient4112"
       xlink:href="#linearGradient4082"
       inkscape:collect="always" />
    <linearGradient
       y2="363.35178"
       x2="214.98698"
       y1="363.35178"
       x1="100.01301"
       gradientUnits="userSpaceOnUse"
       id="linearGradient4110"
       xlink:href="#linearGradient4082"
       inkscape:collect="always" />
    <linearGradient
       y2="369.36218"
       x2="157.5"
       y1="369.36218"
       x1="92.5"
       spreadMethod="reflect"
       gradientTransform="matrix(0.88441524,0,0,0.88441524,18.2046,36.682232)"
       gradientUnits="userSpaceOnUse"
       id="linearGradient4108"
       xlink:href="#linearGradient3796"
       inkscape:collect="always" />
    <radialGradient
       r="46.19096"
       fy="281.1026"
       fx="201"
       cy="281.1026"
       cx="201"
       gradientTransform="matrix(1.4715624,0,-4.7867548e-6,1.463368,-94.78269,-132.99436)"
       gradientUnits="userSpaceOnUse"
       id="radialGradient4106"
       xlink:href="#linearGradient2884"
       inkscape:collect="always" />
    <linearGradient
       y2="363.35178"
       x2="214.98698"
       y1="363.35178"
       x1="100.01301"
       gradientUnits="userSpaceOnUse"
       id="linearGradient4094"
       xlink:href="#linearGradient4082"
       inkscape:collect="always" />
    <linearGradient
       y2="363.35178"
       x2="214.98698"
       y1="363.35178"
       x1="100.01301"
       gradientUnits="userSpaceOnUse"
       id="linearGradient4092"
       xlink:href="#linearGradient4082"
       inkscape:collect="always" />
    <linearGradient
       gradientUnits="userSpaceOnUse"
       y2="363.35178"
       x2="214.98698"
       y1="363.35178"
       x1="100.01301"
       id="linearGradient4088"
       xlink:href="#linearGradient4082"
       inkscape:collect="always" />
    <linearGradient
       y2="369.36218"
       x2="157.5"
       y1="369.36218"
       x1="92.5"
       spreadMethod="reflect"
       gradientTransform="matrix(0.88441524,0,0,0.88441524,18.2046,36.682232)"
       gradientUnits="userSpaceOnUse"
       id="linearGradient4080"
       xlink:href="#linearGradient3796"
       inkscape:collect="always" />
    <clipPath
       id="clipPath4076"
       clipPathUnits="userSpaceOnUse">
      <rect
         style="fill:url(#linearGradient4080);fill-opacity:1;fill-rule:evenodd;stroke:none"
         id="rect4078"
         width="114.97398"
         height="91.979187"
         x="100.01301"
         y="317.36218" />
    </clipPath>
    <inkscape:perspective
       sodipodi:type="inkscape:persp3d"
       inkscape:vp_x="0 : 0.5 : 1"
       inkscape:vp_y="0 : 1000 : 0"
       inkscape:vp_z="1 : 0.5 : 1"
       inkscape:persp3d-origin="0.5 : 0.33333333 : 1"
       id="perspective4058" />
    <linearGradient
       y2="363.35178"
       x2="214.98698"
       y1="363.35178"
       x1="100.013"
       gradientUnits="userSpaceOnUse"
       id="linearGradient4040"
       xlink:href="#linearGradient4012"
       inkscape:collect="always" />
    <linearGradient
       y2="363.35178"
       x2="214.98698"
       y1="363.35178"
       x1="100.013"
       gradientUnits="userSpaceOnUse"
       id="linearGradient4038"
       xlink:href="#linearGradient4012"
       inkscape:collect="always" />
    <linearGradient
       y2="363.35178"
       x2="214.98698"
       y1="363.35178"
       x1="100.013"
       gradientUnits="userSpaceOnUse"
       id="linearGradient4036"
       xlink:href="#linearGradient4012"
       inkscape:collect="always" />
    <linearGradient
       y2="363.35178"
       x2="214.98698"
       y1="363.35178"
       x1="100.013"
       gradientUnits="userSpaceOnUse"
       id="linearGradient4034"
       xlink:href="#linearGradient4012"
       inkscape:collect="always" />
    <linearGradient
       gradientUnits="userSpaceOnUse"
       y2="363.35178"
       x2="214.98698"
       y1="363.35178"
       x1="100.013"
       id="linearGradient4018"
       xlink:href="#linearGradient4012"
       inkscape:collect="always" />
    <linearGradient
       y2="369.36218"
       x2="157.5"
       y1="369.36218"
       x1="92.5"
       spreadMethod="reflect"
       gradientTransform="matrix(0.88441524,0,0,0.88441524,18.2046,36.682232)"
       gradientUnits="userSpaceOnUse"
       id="linearGradient4010"
       xlink:href="#linearGradient3796"
       inkscape:collect="always" />
    <clipPath
       id="clipPath4006"
       clipPathUnits="userSpaceOnUse">
      <rect
         style="fill:url(#linearGradient4010);fill-opacity:1;fill-rule:evenodd;stroke:none"
         id="rect4008"
         width="114.97398"
         height="91.979187"
         x="100.013"
         y="317.36218" />
    </clipPath>
    <inkscape:perspective
       sodipodi:type="inkscape:persp3d"
       inkscape:vp_x="0 : 0.5 : 1"
       inkscape:vp_y="0 : 1000 : 0"
       inkscape:vp_z="1 : 0.5 : 1"
       inkscape:persp3d-origin="0.5 : 0.33333333 : 1"
       id="perspective3975" />
    <radialGradient
       r="104.95712"
       fy="388.78998"
       fx="212.66312"
       cy="388.78998"
       cx="212.66312"
       gradientTransform="matrix(0.85571091,0,0,0.85575598,29.07534,66.62877)"
       gradientUnits="userSpaceOnUse"
       id="radialGradient3954"
       xlink:href="#linearGradient3826"
       inkscape:collect="always" />
    <radialGradient
       r="104.95712"
       fy="388.78998"
       fx="212.66312"
       cy="388.78998"
       cx="212.66312"
       gradientTransform="matrix(0.92774045,0,0,0.92778931,13.761816,39.799358)"
       gradientUnits="userSpaceOnUse"
       id="radialGradient3950"
       xlink:href="#linearGradient3826"
       inkscape:collect="always" />
    <clipPath
       id="clipPath3946"
       clipPathUnits="userSpaceOnUse">
      <rect
         style="fill:url(#radialGradient3950);fill-opacity:1;fill-rule:evenodd;stroke:#000000;stroke-width:1.08417511px;stroke-linecap:butt;stroke-linejoin:miter;stroke-opacity:1"
         id="rect3948"
         width="226.49962"
         height="166.90941"
         x="87.45871"
         y="384.90637" />
    </clipPath>
    <radialGradient
       gradientUnits="userSpaceOnUse"
       gradientTransform="matrix(0.85571091,0,0,0.85575598,29.07534,66.62877)"
       r="104.95712"
       fy="388.78998"
       fx="212.66312"
       cy="388.78998"
       cx="212.66312"
       id="radialGradient3832"
       xlink:href="#linearGradient3826"
       inkscape:collect="always" />
    <inkscape:perspective
       sodipodi:type="inkscape:persp3d"
       inkscape:vp_x="0 : 0.5 : 1"
       inkscape:vp_y="0 : 1000 : 0"
       inkscape:vp_z="1 : 0.5 : 1"
       inkscape:persp3d-origin="0.5 : 0.33333333 : 1"
       id="perspective3818" />
    <linearGradient
       gradientTransform="matrix(0.88441524,0,0,0.88441524,18.2046,36.682232)"
       spreadMethod="reflect"
       gradientUnits="userSpaceOnUse"
       y2="369.36218"
       x2="157.5"
       y1="369.36218"
       x1="92.5"
       id="linearGradient3802"
       xlink:href="#linearGradient3796"
       inkscape:collect="always" />
    <radialGradient
       r="46.19096"
       fy="281.1026"
       fx="201"
       cy="281.1026"
       cx="201"
       gradientTransform="matrix(1.4715624,0,-4.7867548e-6,1.463368,-94.78269,-132.99436)"
       gradientUnits="userSpaceOnUse"
       id="radialGradient3750"
       xlink:href="#linearGradient2884"
       inkscape:collect="always" />
    <clipPath
       id="clipPath3746"
       clipPathUnits="userSpaceOnUse">
      <path
         style="fill:url(#radialGradient3750);fill-opacity:1;fill-rule:evenodd;stroke:none"
         d="m 157.89645,245.13294 c -25.38439,0 -46.01746,20.58509 -46.15625,45.9375 -4.7e-4,0.0856 -0.0312,0.16432 -0.0312,0.25 0,0.10823 -0.001,-0.0188 0,0.0625 a 3.6972984,3.6972984 0 0 0 0,0.0625 3.6972984,3.6972984 0 0 0 0,0.25 l 0,56.625 a 3.6972984,3.6972984 0 0 0 3.6875,3.6875 l 10.75,0 a 3.6972984,3.6972984 0 0 0 3.6875,-3.6875 l 0.0312,-56.625 a 3.6972984,3.6972984 0 0 0 0,-0.0625 c -0.0102,-0.65463 -0.0312,-0.74405 -0.0312,-0.3125 0,-1.92954 0.21811,-3.82054 0.59375,-5.65625 0.37382,-1.8268 0.91445,-3.57006 1.625,-5.25 0.70721,-1.67203 1.58446,-3.28731 2.59375,-4.78125 1.0053,-1.48805 2.16156,-2.84906 3.4375,-4.125 1.27594,-1.27594 2.63695,-2.4322 4.125,-3.4375 1.49394,-1.00929 3.10922,-1.88654 4.78125,-2.59375 1.67994,-0.71055 3.4232,-1.25118 5.25,-1.625 1.83571,-0.37564 3.72671,-0.59375 5.65625,-0.59375 1.92954,0 3.82054,0.21811 5.65625,0.59375 1.8268,0.37382 3.57006,0.91445 5.25,1.625 1.67203,0.70721 3.28731,1.58446 4.78125,2.59375 1.48805,1.0053 2.84906,2.16156 4.125,3.4375 1.27594,1.27594 2.4322,2.63695 3.4375,4.125 1.00929,1.49394 1.88654,3.10922 2.59375,4.78125 0.71055,1.67994 1.25118,3.4232 1.625,5.25 0.37564,1.83571 0.59375,3.72671 0.59375,5.65625 0,-0.44112 -0.0234,-0.3294 -0.0312,0.34375 a 3.6972984,3.6972984 0 0 0 0,0.0312 l 0.15625,56.625 a 3.6972984,3.6972984 0 0 0 3.6875,3.6875 l 10.625,0 a 3.6972984,3.6972984 0 0 0 3.6875,-3.6875 l 0,-56.625 a 3.6972984,3.6972984 0 0 0 0,-0.375 c 0,-25.47007 -20.71743,-46.1875 -46.1875,-46.1875 z"
         id="path3748" />
    </clipPath>
    <filter
       color-interpolation-filters="sRGB"
       id="filter3734"
       inkscape:collect="always">
      <feGaussianBlur
         id="feGaussianBlur3736"
         stdDeviation="2.8892246"
         inkscape:collect="always" />
    </filter>
    <filter
       color-interpolation-filters="sRGB"
       id="filter3730"
       inkscape:collect="always">
      <feGaussianBlur
         id="feGaussianBlur3732"
         stdDeviation="2.8892246"
         inkscape:collect="always" />
    </filter>
    <radialGradient
       gradientUnits="userSpaceOnUse"
       gradientTransform="matrix(1.4715624,0,-4.7867548e-6,1.463368,-94.78269,-132.99436)"
       r="46.19096"
       fy="281.1026"
       fx="201"
       cy="281.1026"
       cx="201"
       id="radialGradient2890"
       xlink:href="#linearGradient2884"
       inkscape:collect="always" />
    <inkscape:perspective
       id="perspective10"
       inkscape:persp3d-origin="372.04724 : 350.78739 : 1"
       inkscape:vp_z="744.09448 : 526.18109 : 1"
       inkscape:vp_y="0 : 1000 : 0"
       inkscape:vp_x="0 : 526.18109 : 1"
       sodipodi:type="inkscape:persp3d" />
    <linearGradient
       id="linearGradient2884"
       inkscape:collect="always">
      <stop
         id="stop2886"
         offset="0"
         style="stop-color:#b3b3b3;stop-opacity:1" />
      <stop
         id="stop2888"
         offset="1"
         style="stop-color:#999999;stop-opacity:1" />
    </linearGradient>
    <linearGradient
       id="linearGradient3796"
       inkscape:collect="always">
      <stop
         id="stop3798"
         offset="0"
         style="stop-color:#aa8800;stop-opacity:1;" />
      <stop
         style="stop-color:#d4aa00;stop-opacity:1"
         offset="0.13846155"
         id="stop3804" />
      <stop
         id="stop3806"
         offset="0.56153846"
         style="stop-color:#ffcc00;stop-opacity:1" />
      <stop
         style="stop-color:#ffd42a;stop-opacity:1"
         offset="0.83846152"
         id="stop3808" />
      <stop
         id="stop3800"
         offset="1"
         style="stop-color:#ffd42a;stop-opacity:1" />
    </linearGradient>
    <linearGradient
       id="linearGradient3826"
       inkscape:collect="always">
      <stop
         id="stop3828"
         offset="0"
         style="stop-color:#f9f122;stop-opacity:1" />
      <stop
         style="stop-color:#f8f216;stop-opacity:1"
         offset="0.48805186"
         id="stop3836" />
      <stop
         id="stop3840"
         offset="0.52702177"
         style="stop-color:#f8f219;stop-opacity:0" />
      <stop
         id="stop3830"
         offset="1"
         style="stop-color:#f9f21d;stop-opacity:0" />
    </linearGradient>
    <linearGradient
       id="linearGradient4012"
       inkscape:collect="always">
      <stop
         id="stop4014"
         offset="0"
         style="stop-color:#ffffff;stop-opacity:0" />
      <stop
         style="stop-color:#ffffff;stop-opacity:1"
         offset="0.50775766"
         id="stop4020" />
      <stop
         id="stop4016"
         offset="1"
         style="stop-color:#ffffff;stop-opacity:0;" />
    </linearGradient>
    <linearGradient
       id="linearGradient4082"
       inkscape:collect="always">
      <stop
         id="stop4084"
         offset="0"
         style="stop-color:#ffffff;stop-opacity:0" />
      <stop
         style="stop-color:#ffffff;stop-opacity:0.48235294;"
         offset="0.51698285"
         id="stop4090" />
      <stop
         id="stop4086"
         offset="1"
         style="stop-color:#ffffff;stop-opacity:0;" />
    </linearGradient>
  </defs>
  <sodipodi:namedview
     id="base"
     pagecolor="#ffffff"
     bordercolor="#666666"
     borderopacity="1.0"
     inkscape:pageopacity="0.0"
     inkscape:pageshadow="2"
     inkscape:zoom="8"
     inkscape:cx="35"
     inkscape:cy="35"
     inkscape:document-units="px"
     inkscape:current-layer="g9631-4-3"
     showgrid="false"
     inkscape:window-width="1248"
     inkscape:window-height="773"
     inkscape:window-x="32"
     inkscape:window-y="0"
     inkscape:window-maximized="1" />
  <metadata
     id="metadata5978">
    <rdf:RDF>
      <cc:Work
         rdf:about="">
        <dc:format>image/svg+xml</dc:format>
        <dc:type
           rdf:resource="http://purl.org/dc/dcmitype/StillImage" />
        <dc:title></dc:title>
      </cc:Work>
    </rdf:RDF>
  </metadata>
  <g
     inkscape:label="Layer 1"
     inkscape:groupmode="layer"
     id="layer1"
     transform="translate(0,-982.36199)">
    <g
       transform="matrix(0.84203347,0,0,0.84203347,-55.444012,723.71742)"
       id="g9631-4-3">
      <g
         transform="matrix(0.40015142,0,0,0.40015142,54.979772,292.24286)"
         id="g4099-6-4-9">
        <g
           transform="matrix(0.15853656,0,0,0.15853656,33.636379,40.883242)"
           id="Layer_3-70-8-1">
          <path
             style="stroke:#000000"
             inkscape:connector-curvature="0"
             id="path4674-4-0-4"
             d="m 942.736,597.018 c 0,240.43 -194.91,435.328 -435.336,435.328 -240.426,0 -435.328,-194.899 -435.328,-435.328 0,-240.429 194.903,-435.332 435.328,-435.332 240.425,0 435.336,194.902 435.336,435.332 z" />
          <circle
             d="m 898.74399,592.354 c 0,223.12304 -180.87696,404 -404,404 -223.12304,0 -404.000002,-180.87696 -404.000002,-404 0,-223.12304 180.876962,-404 404.000002,-404 223.12304,0 404,180.87696 404,404 z"
             sodipodi:ry="404"
             sodipodi:rx="404"
             sodipodi:cy="592.354"
             sodipodi:cx="494.74399"
             style="fill:#f99b0c;fill-opacity:1;stroke:#000000"
             id="circle4676-6-9-2"
             r="404"
             cy="592.354"
             cx="494.74399" />
          <path
             style="stroke:#000000"
             inkscape:connector-curvature="0"
             id="path4678-3-8-3"
             d="m 277.072,488.025 c 8,-18 -20,-108 75,-234.998 10.371,-13.863 -67,17 -67,17 l 1,-20 c 0,0 18,-72 71,-63 10.133,1.721 47.832,-7.746 39,-13 -116,-69 -212,96 -201,165 1.102,6.912 -47,48.131 -47,68.998 0,0 119.414,101.571 129,80 z" />
          <path
             style="stroke:#000000"
             inkscape:connector-curvature="0"
             id="path4680-4-9-2"
             d="m 284.408,517.361 c -34,49 -23,259 10,269 24.398,7.391 54,-29 64,-27 17.758,3.547 99,155.664 270.332,190 27.121,5.434 102.668,27 102.668,27 0,0 33.664,11.664 55.664,4.664 11.328,-3.602 107.893,-35.15 68.229,-126.479 -5.156,-11.875 4.115,118.627 -229.893,4.479 -109.332,-53.332 -178,-132.664 -183,-150.664 -3.211,-11.563 77.855,-77.945 45,-83 -130,-20 -192.051,-123.781 -203,-108 z" />
        </g>
        <g
           transform="matrix(0.15853656,0,0,0.15853656,33.636379,40.883242)"
           id="Layer_2-57-7-9">
          <path
             style="stroke:#000000"
             inkscape:connector-curvature="0"
             id="path4683-90-0-8"
             d="m 493.143,993.166 c 11.391,-5.223 39.523,-12.539 51.203,-8 11.996,4.664 23.621,31.941 28,43.203 5.598,14.398 -16,36 -13.602,55.199 2.379,19.051 37.145,37.133 28,66.398 -8,25.602 -48.348,49.258 -40.801,60 20.801,29.602 -9.977,57.422 -11.203,51.727 -8.801,-40.801 -31.195,-12.523 -40.793,-44.523 -5.148,-17.164 34.398,-30.406 21.598,-67.203 -13.668,-39.289 -46.785,-39.758 -64.395,-55.211 -16.398,-14.391 -16.867,-42.535 -12,-56 6.051,-16.742 37.809,-38.168 53.993,-45.59 z" />
          <path
             style="stroke:#000000"
             inkscape:connector-curvature="0"
             id="path4685-1-9-2"
             d="m 405.139,1001.162 c 32.809,28.797 -26.793,110.133 -48.395,120.531 -3.363,1.617 -3.824,-18.352 -6.797,-13.336 -12.801,21.602 -76.801,22.402 -70.012,13.203 40.652,-55.082 12.332,-80.945 26,-104 4.512,-7.609 14.23,-26.738 23.203,-27.598 12.543,-1.203 14.879,23.633 22.398,28.797 13.29,9.126 30.872,-37.55 53.603,-17.597 z" />
          <path
             style="stroke:#000000"
             inkscape:connector-curvature="0"
             id="path4687-4-8-5"
             d="m 285.545,951.561 c 4.402,102.398 -107.09,95.199 -90,72 22.398,-30.402 4.184,-52.473 4,-70 -0.129,-12.297 22,-44 22,-44 0,0 63.18,22.882 64,42 z" />
          <path
             style="stroke:#000000"
             inkscape:connector-curvature="0"
             id="path4689-6-4-1"
             d="m 169.634,1030.881 c 5.387,3.316 -9.065,12.528 -22.667,9.333 -16.52,-3.879 -17.698,-24.081 -13.167,-21.167 11.2,7.199 25.436,5.432 35.834,11.834 z" />
          <path
             style="stroke:#000000"
             inkscape:connector-curvature="0"
             id="path4691-4-9-5"
             d="m 10.752,985.021 c 40.672,-24.668 29.035,-57.801 63.324,-79.332 28.672,-18.004 48.402,-6.609 56,8 8.668,16.664 0.672,42.664 -19.328,56 -49.848,33.239 -113.117,23.29 -99.996,15.332 z" />
          <path
             style="stroke:#000000"
             inkscape:connector-curvature="0"
             id="path4693-8-2-8"
             d="m 317.822,1150.631 c 33.723,3.328 34.523,31.332 56.926,41.73 11.359,5.273 26.73,2.121 32.668,-7.27 6.531,-10.328 4.293,-23.117 -16,-36 -41.473,-26.331 -79.875,0.919 -73.594,1.54 z" />
          <path
             style="stroke:#000000"
             inkscape:connector-curvature="0"
             id="path4695-5-08-1"
             d="m 1134.744,738.361 c -33.785,2.578 -35.465,-14.984 -59.332,-21.336 -12.105,-3.219 -29.121,-1.609 -33.336,8.668 -4.641,11.309 9.777,40.168 32,49.332 45.414,18.731 66.965,-37.144 60.668,-36.664 z" />
          <path
             style="stroke:#000000"
             inkscape:connector-curvature="0"
             id="path4697-9-0-9"
             d="m 150.551,929.297 c 0,0 11.473,-7.031 13.5,-18.75 1.832,-10.586 -5.695,-20.011 -7.25,-18.75 -7.525,6.104 -2.646,13.178 -3.021,18.479 -0.415,5.835 -3.229,19.021 -3.229,19.021 z" />
          <path
             style="stroke:#000000"
             inkscape:connector-curvature="0"
             id="path4699-5-7-0"
             d="m 41.801,817.547 c -16.289,5.73 51.283,13.475 69.951,37.475 5.766,7.414 39.328,-9.332 39.328,-9.332 0,0 -21.207,-47.695 -33.996,-50.668 -57.332,-13.336 -39.279,9.857 -75.283,22.525 z" />
          <path
             style="stroke:#000000"
             inkscape:connector-curvature="0"
             id="path4701-56-3-6"
             d="m 768.084,815.025 c -6.145,-11.73 5.223,-33.07 7.211,-40.301 3.32,-12.082 20.469,-15.004 31.453,-21.035 11.281,-6.191 43.891,-4.547 55.332,-0.664 14.625,4.969 20.238,22.234 39.336,25.332 24.664,4 65.344,-16.617 90.664,0.668 69.336,47.332 46.836,106.633 56.668,115.332 17.336,15.336 27.492,-9.793 27.996,-3.996 2.668,30.668 -33.332,31.332 -38.664,29.996 -12.352,-3.094 -36.008,-27.414 -48,-44.668 -8.746,-12.578 -19.996,-43.996 -30.664,-45.332 -21.211,-2.656 -23.336,68.672 -6.004,83.336 8.668,7.336 -8.531,-3.152 -28.664,-20.668 -16.035,-13.953 -20,-34 -49.332,-35.332 -43.613,-1.98 -62.938,-2.176 -66.668,-16 -11.332,-42 -32.223,-10.543 -40.664,-26.668 z" />
          <path
             style="stroke:#000000"
             inkscape:connector-curvature="0"
             id="path4703-8-0-7"
             d="m 848.072,698.365 c -12.938,-2.836 -29.07,-11.832 -33.332,-18 -7.121,-10.309 -24.359,-35.438 -16.664,-45.332 14,-18 10,-45.336 22,-62.668 8.793,-12.699 22.016,-0.027 36.664,-12.668 18.918,-16.32 32.766,-7.895 62.668,-14.664 35.332,-8 106.398,21.801 147.328,10 34.668,-9.996 27.914,-56.012 32.676,-52.672 25.211,17.668 -24.023,143.742 -46.668,145.332 -38,2.668 -27.641,17.84 -54,22.004 -20.996,3.313 -53.082,-0.961 -31.332,31.332 22,32.664 -30.012,-7.324 -44.012,-2.656 -39.863,13.293 -57.55,3.891 -75.328,-0.008 z" />
          <path
             style="stroke:#000000"
             inkscape:connector-curvature="0"
             id="path4705-0-2-3"
             d="m 952.744,484.357 c -23,17 -71.172,27.785 -91,23 -29,-7 -45.82,-37.785 -43,-50 12,-52 -7.438,-32.668 -13,-53 -4.074,-14.898 29.719,-9.68 41,-36 30,-70 62,-36 62,-58 0,-67.602 28,-67 29,-74 5.242,-36.682 20,-76 78,-89 70.066,-15.705 86.918,1.902 81,5 -21,11 -61.227,19.051 -73,43 -29,59 -5,111 -14,187 -4.711,39.782 -42.367,91.184 -57,102 z" />
          <path
             style="stroke:#000000"
             inkscape:connector-curvature="0"
             id="path4707-4-5-0"
             d="m 1032.244,402.857 c -6.535,5.59 32.352,0.383 47,-19.5 14,-19 8.766,-61.77 25,-84.5 12.5,-17.5 54.5,-16 52,-19.5 -28.117,-39.363 -73.5,-8.5 -89.285,6.586 -35.512,33.942 6.785,81.414 -34.715,116.914 z" />
          <path
             style="stroke:#000000"
             inkscape:connector-curvature="0"
             id="path4709-2-0-4"
             d="m 1241.244,296.357 c -25.5,10 -41,16 -49.5,30.5 -18.461,31.492 -49,36 -53,27 -3.727,-8.387 6.5,-29.164 26.5,-42.5 49.848,-33.238 79.547,-16.39 76,-15 z" />
          <path
             style="stroke:#000000"
             inkscape:connector-curvature="0"
             id="path4711-8-7-0"
             d="m 853.408,299.025 c -13.328,-0.008 -21.316,11.939 -44.664,19.998 -19.332,6.672 -33.332,10.672 -36,12.008 -10.93,5.465 20.184,23.604 34,21.33 44.664,-7.33 52.981,-53.336 46.664,-53.336 z" />
          <path
             style="stroke:#000000"
             inkscape:connector-curvature="0"
             id="path4713-2-0-2"
             d="m 715.416,225.023 c -8,29.334 -1.207,52.465 13.332,58.666 45.332,19.334 59.27,-22.926 112,-35.332 34,-8 61.797,-57.867 22,-146.668 -8.664,-19.332 7.328,-57.998 -5.34,-48.664 -33.883,24.965 -30.66,75.998 -71.324,120.664 -8.191,8.999 -66.297,35.305 -70.668,51.334 z" />
          <path
             style="stroke:#000000"
             inkscape:connector-curvature="0"
             id="path4715-8-2-4"
             d="m 777.301,21.547 c -4.332,19 -2.225,43.479 -5.893,60.813 -0.98,4.635 -12.5,-12.08 -14,-26 -2.332,-21.667 21.299,-40.973 19.893,-34.813 z" />
          <path
             style="stroke:#000000"
             inkscape:connector-curvature="0"
             id="path4717-8-7-2"
             d="m 698.748,217.691 c -14.656,6.613 -76.547,-22.678 -74.668,-30.668 10.668,-45.332 -9.645,-65.824 -1.332,-100 11.496,-47.283 81.844,-48.273 63.992,-37.33 -20.172,12.363 -17.93,38.4 -7.992,57.33 10.422,19.859 33.332,18.668 37.332,56 1.297,12.102 -2.187,47.836 -17.332,54.668 z" />
          <path
             style="stroke:#000000"
             inkscape:connector-curvature="0"
             id="path4719-4-9-5"
             d="m 564.74,99.025 c -11.5,50.5 27.504,23.332 19.504,76.332 -0.707,4.686 -41.945,-8.43 -43.5,-36 -2,-35.5 25.399,-46.494 23.996,-40.332 z" />
          <path
             style="stroke:#000000"
             inkscape:connector-curvature="0"
             id="path4721-0-0-2"
             d="m 621.244,2.857 c -52.5,28.5 -22.922,42.85 -40,68.5 -19.875,29.852 -55.459,-11.012 -90.943,61.689 -0.906,1.861 -2.057,-27.189 4.943,-34.689 C 540.853,49.49 531.252,26.078 544.26,17.558 574.002,-1.924 626.795,-0.156 621.244,2.857 z" />
          <path
             style="stroke:#000000"
             inkscape:connector-curvature="0"
             id="path4723-8-0-5"
             d="m 444.301,117.547 c -5,27.5 -40.057,18.311 -33.557,56.311 0.801,4.67 59.445,11.57 61,-16 2,-35.501 -26.314,-46.53 -27.443,-40.311 z" />
          <path
             style="stroke:#000000"
             inkscape:connector-curvature="0"
             id="path4725-2-64-8"
             d="m 341.412,101.693 c 4.332,19 3.336,26.334 10.664,40 2.238,4.176 19.672,-14.668 14.336,-32 -3.332,-10.818 -26.406,-14.16 -25,-8 z" />
          <path
             style="stroke:#000000"
             inkscape:connector-curvature="0"
             id="path4727-8-1-0"
             d="m 708.346,854.76 c 7.254,-10.219 2.012,-6.094 14.398,-8 12.719,-1.961 32.977,-0.363 42.398,7.199 12.047,9.672 22.984,30.484 36,44.801 8,8.801 61.496,-1.09 85.602,33.598 65.602,94.398 -58.527,114.367 -43.199,95.203 3.199,-4 48,-7.203 27.199,-49.602 -27.895,-56.855 -65.023,-51.023 -88,-55.602 -21.395,-4.262 -55.875,-19.875 -66,-30 -8,-8 -18.703,-23.078 -8.398,-37.597 z" />
          <path
             style="stroke:#000000"
             inkscape:connector-curvature="0"
             id="path4729-27-5-8"
             d="m 587.541,967.557 c 1.602,-16 14.219,-23.375 22.402,-24 40.234,-3.078 127.359,27.719 152.801,52.004 35.199,33.598 -11.938,160.266 -14.336,139.465 -9.223,-80 -68.066,-45.066 -137.664,-113.066 -8.703,-8.505 -24.859,-37.872 -23.203,-54.403 z" />
        </g>
        <g
           transform="matrix(0.15853656,0,0,0.15853656,33.636379,40.883242)"
           style="fill:#000000;fill-opacity:1"
           id="Layer_2_copy-7-12-4">
          <path
             inkscape:connector-curvature="0"
             style="fill:#000000;fill-opacity:1;stroke:#000000;stroke-width:2"
             id="path4732-3-9-7"
             d="m 485.143,993.166 c 11.391,-5.223 39.523,-12.539 51.203,-8 11.996,4.664 23.621,31.941 28,43.203 5.598,14.398 -16,36 -13.602,55.199 2.379,19.051 37.145,37.133 28,66.398 -8,25.602 -48.348,49.258 -40.801,60 20.801,29.602 -2.77,55.297 -3.996,49.602 -8.801,-40.801 -38.402,-10.398 -48,-42.398 -5.148,-17.164 34.398,-30.406 21.598,-67.203 -13.668,-39.289 -46.785,-39.758 -64.395,-55.211 -16.398,-14.391 -16.867,-42.535 -12,-56 6.051,-16.742 37.809,-38.168 53.993,-45.59 z" />
          <path
             inkscape:connector-curvature="0"
             style="fill:#000000;fill-opacity:1;stroke:#000000;stroke-width:2"
             id="path4734-2-7-1"
             d="m 397.139,1001.162 c 32.809,28.797 -20.793,107.996 -42.395,118.395 -3.363,1.617 -9.824,-16.215 -12.797,-11.199 -12.801,21.602 -76.801,22.402 -70.012,13.203 40.652,-55.082 12.332,-80.945 26,-104 4.512,-7.609 14.23,-26.738 23.203,-27.598 12.543,-1.203 14.879,23.633 22.398,28.797 13.29,9.125 30.872,-37.551 53.603,-17.598 z" />
          <path
             inkscape:connector-curvature="0"
             style="fill:#000000;fill-opacity:1;stroke:#000000;stroke-width:2"
             id="path4736-0-0-9"
             d="m 277.545,951.561 c 4.402,102.398 -107.09,95.199 -90,72 22.398,-30.402 4.184,-52.473 4,-70 -0.129,-12.297 22,-44 22,-44 0,0 63.18,22.882 64,42 z" />
          <path
             inkscape:connector-curvature="0"
             style="fill:#000000;fill-opacity:1;stroke:#000000;stroke-width:2"
             id="path4738-26-6-8"
             d="m 165.146,1030.76 c 5.387,3.316 -10.398,11.195 -24,8 -16.52,-3.879 -12.531,-22.914 -8,-20 11.2,7.199 21.602,5.597 32,12 z" />
          <path
             inkscape:connector-curvature="0"
             style="fill:#000000;fill-opacity:1;stroke:#000000;stroke-width:2"
             id="path4740-7-3-7"
             d="m 2.752,985.021 c 40.672,-24.668 29.035,-57.801 63.324,-79.332 28.672,-18.004 48.402,-6.609 56,8 8.668,16.664 0.672,42.664 -19.328,56 -49.848,33.239 -113.117,23.29 -99.996,15.332 z" />
          <path
             inkscape:connector-curvature="0"
             style="fill:#000000;fill-opacity:1;stroke:#000000;stroke-width:2"
             id="path4742-5-63-4"
             d="m 309.822,1150.631 c 33.723,3.328 34.523,31.332 56.926,41.73 11.359,5.273 26.73,2.121 32.668,-7.27 6.531,-10.328 4.293,-23.117 -16,-36 -41.473,-26.331 -79.875,0.919 -73.594,1.54 z" />
          <path
             inkscape:connector-curvature="0"
             style="fill:#000000;fill-opacity:1;stroke:#000000;stroke-width:2"
             id="path4744-4-6-9"
             d="m 1130.283,743.4 c -33.785,2.578 -39.004,-20.023 -62.871,-26.375 -12.105,-3.219 -29.121,-1.609 -33.336,8.668 -4.641,11.309 9.777,40.168 32,49.332 45.414,18.731 70.504,-32.105 64.207,-31.625 z" />
          <path
             inkscape:connector-curvature="0"
             style="fill:#000000;fill-opacity:1;stroke:#000000;stroke-width:2"
             id="path4746-4-7-2"
             d="m 149.549,929.686 c 0,0 7.598,-7.727 11.598,-18.926 1.941,-5.434 0.496,-18.746 -5.598,-19.074 -5.309,-0.289 -9.223,11.371 -9.598,16.672 -0.414,5.835 3.598,21.328 3.598,21.328 z" />
          <path
             inkscape:connector-curvature="0"
             style="fill:#000000;fill-opacity:1;stroke:#000000;stroke-width:2"
             id="path4748-1-6-8"
             d="m 40.748,817.021 c -16.289,5.73 49.336,6 68.004,30 5.766,7.414 39.328,-9.332 39.328,-9.332 0,0 -21.207,-47.695 -33.996,-50.668 -57.332,-13.335 -37.332,17.333 -73.336,30 z" />
          <path
             inkscape:connector-curvature="0"
             style="fill:#000000;fill-opacity:1;stroke:#000000;stroke-width:2"
             id="path4750-7-6-6"
             d="m 760.084,815.025 c -6.145,-11.73 5.223,-33.07 7.211,-40.301 3.32,-12.082 20.469,-15.004 31.453,-21.035 11.281,-6.191 43.891,-4.547 55.332,-0.664 14.625,4.969 20.238,22.234 39.336,25.332 24.664,4 65.344,-16.617 90.664,0.668 69.336,47.332 46.836,106.633 56.668,115.332 17.336,15.336 32.828,-8.465 33.332,-2.668 2.668,30.668 -38.668,30.004 -44,28.668 -12.352,-3.094 -36.008,-27.414 -48,-44.668 -8.746,-12.578 -19.996,-43.996 -30.664,-45.332 -21.211,-2.656 -16.664,66.004 0.668,80.668 8.668,7.336 -15.203,-0.484 -35.336,-18 -16.035,-13.953 -20,-34 -49.332,-35.332 -43.613,-1.98 -62.938,-2.176 -66.668,-16 -11.332,-42 -32.223,-10.543 -40.664,-26.668 z" />
          <path
             inkscape:connector-curvature="0"
             style="fill:#000000;fill-opacity:1;stroke:#000000;stroke-width:2"
             id="path4752-8-3-0"
             d="m 839.416,699.021 c -12.938,-2.836 -29.07,-11.832 -33.332,-18 -7.121,-10.309 -24.359,-35.438 -16.664,-45.332 14,-18 10,-45.336 22,-62.668 8.793,-12.699 22.016,-0.027 36.664,-12.668 18.918,-16.32 32.766,-7.895 62.668,-14.664 35.332,-8 106.398,21.801 147.328,10 34.668,-9.996 33.91,-57.34 38.672,-54 25.211,17.668 -30.02,142.406 -52.664,143.996 -38,2.668 -27.641,20.504 -54,24.668 -20.996,3.313 -50.004,-7.238 -28.668,25.332 25.332,38.668 -24.004,-2.664 -38.004,2.004 -39.863,13.293 -66.223,5.231 -84,1.332 z" />
          <path
             inkscape:connector-curvature="0"
             style="fill:#000000;fill-opacity:1;stroke:#000000;stroke-width:2"
             id="path4754-4-3-0"
             d="m 944.744,484.357 c -23,17 -71.172,27.785 -91,23 -29,-7 -45.82,-37.785 -43,-50 12,-52 -7.438,-32.668 -13,-53 -4.074,-14.898 29.719,-9.68 41,-36 30,-70 62,-36 62,-58 0,-67.602 28,-67 29,-74 5.242,-36.682 20,-76 78,-89 70.066,-15.705 86.918,1.902 81,5 -21,11 -61.227,19.051 -73,43 -29,59 -5,111 -14,187 -4.711,39.782 -42.367,91.184 -57,102 z" />
          <path
             inkscape:connector-curvature="0"
             style="fill:#000000;fill-opacity:1;stroke:#000000;stroke-width:2"
             id="path4756-5-2-8"
             d="m 1024.244,402.857 c -6.535,5.59 32.352,0.383 47,-19.5 14,-19 8.766,-61.77 25,-84.5 12.5,-17.5 54.5,-16 52,-19.5 -28.117,-39.363 -73.5,-8.5 -89.285,6.586 -35.512,33.942 6.785,81.414 -34.715,116.914 z" />
          <path
             inkscape:connector-curvature="0"
             style="fill:#000000;fill-opacity:1;stroke:#000000;stroke-width:2"
             id="path4758-0-4-0"
             d="m 1233.244,296.357 c -25.5,10 -41,16 -49.5,30.5 -18.461,31.492 -49,36 -53,27 -3.727,-8.387 6.5,-29.164 26.5,-42.5 49.848,-33.238 79.547,-16.39 76,-15 z" />
          <path
             inkscape:connector-curvature="0"
             style="fill:#000000;fill-opacity:1;stroke:#000000;stroke-width:2"
             id="path4760-2-8-0"
             d="m 848.076,301.031 c -13.328,-0.008 -23.984,9.934 -47.332,17.992 -19.332,6.672 -33.332,10.672 -36,12.008 -10.93,5.465 20.184,23.602 34,21.332 44.664,-7.332 55.649,-51.332 49.332,-51.332 z" />
          <path
             inkscape:connector-curvature="0"
             style="fill:#000000;fill-opacity:1;stroke:#000000;stroke-width:2"
             id="path4762-7-17-9"
             d="m 707.416,225.023 c -8,29.334 -1.207,52.465 13.332,58.666 45.332,19.334 59.27,-22.926 112,-35.332 34,-8 61.797,-57.867 22,-146.668 -8.664,-19.332 10.668,-54.666 -2,-45.332 -33.883,24.965 -34,72.666 -74.664,117.332 -8.191,8.999 -66.297,35.305 -70.668,51.334 z" />
          <path
             inkscape:connector-curvature="0"
             style="fill:#000000;fill-opacity:1;stroke:#000000;stroke-width:2"
             id="path4764-5-1-9"
             d="m 775.74,22.357 c -4.332,19 -2.664,41.666 -6.332,59 -0.98,4.635 -11.836,-11.08 -13.336,-25 -2.332,-21.666 21.074,-40.16 19.668,-34 z" />
          <path
             inkscape:connector-curvature="0"
             style="fill:#000000;fill-opacity:1;stroke:#000000;stroke-width:2"
             id="path4766-2-9-8"
             d="m 690.748,217.691 c -14.656,6.613 -76.547,-22.678 -74.668,-30.668 10.668,-45.332 -9.645,-65.824 -1.332,-100 11.496,-47.283 84.516,-46.943 66.664,-36 -20.172,12.363 -20.602,37.07 -10.664,56 10.422,19.859 33.332,18.668 37.332,56 1.297,12.102 -2.187,47.836 -17.332,54.668 z" />
          <path
             inkscape:connector-curvature="0"
             style="fill:#000000;fill-opacity:1;stroke:#000000;stroke-width:2"
             id="path4768-3-0-8"
             d="m 562.244,98.357 c -11.5,50.5 22,24 14,77 -0.707,4.686 -41.945,-8.43 -43.5,-36 -2,-35.5 30.902,-47.162 29.5,-41 z" />
          <path
             inkscape:connector-curvature="0"
             style="fill:#000000;fill-opacity:1;stroke:#000000;stroke-width:2"
             id="path4770-78-6-3"
             d="m 613.244,2.857 c -52.5,28.5 -22.922,42.85 -40,68.5 -19.875,29.852 -48,-12 -83.484,60.701 -0.906,1.861 -9.516,-26.201 -2.516,-33.701 C 532.853,49.49 523.252,26.078 536.26,17.558 566.002,-1.924 618.795,-0.156 613.244,2.857 z" />
          <path
             inkscape:connector-curvature="0"
             style="fill:#000000;fill-opacity:1;stroke:#000000;stroke-width:2"
             id="path4772-7-7-0"
             d="m 439.244,116.357 c -5,27.5 -43,19.5 -36.5,57.5 0.801,4.67 59.445,11.57 61,-16 2,-35.5 -23.371,-47.718 -24.5,-41.5 z" />
          <path
             inkscape:connector-curvature="0"
             style="fill:#000000;fill-opacity:1;stroke:#000000;stroke-width:2"
             id="path4774-7-1-2"
             d="m 336.08,102.359 c 4.332,19 5.336,25 12.664,38.666 2.238,4.176 15.004,-14 9.668,-31.332 -3.332,-10.818 -23.738,-13.494 -22.332,-7.334 z" />
          <path
             inkscape:connector-curvature="0"
             style="fill:#000000;fill-opacity:1;stroke:#000000;stroke-width:2"
             id="path4776-3-3-4"
             d="m 700.346,854.76 c 7.254,-10.219 2.012,-6.094 14.398,-8 12.719,-1.961 32.977,-0.363 42.398,7.199 12.047,9.672 22.984,30.484 36,44.801 8,8.801 61.496,-1.09 85.602,33.598 65.602,94.398 -58.527,114.367 -43.199,95.203 3.199,-4 48,-7.203 27.199,-49.602 -27.895,-56.855 -65.023,-51.023 -88,-55.602 -21.395,-4.262 -55.875,-19.875 -66,-30 -8,-8 -18.703,-23.078 -8.398,-37.597 z" />
          <path
             inkscape:connector-curvature="0"
             style="fill:#000000;fill-opacity:1;stroke:#000000;stroke-width:2"
             id="path4778-7-3-4"
             d="m 579.541,967.557 c 1.602,-16 14.219,-23.375 22.402,-24 40.234,-3.078 127.359,27.719 152.801,52.004 35.199,33.598 -4.801,158.398 -7.199,137.598 -9.223,-80 -75.203,-43.199 -144.801,-111.199 -8.703,-8.505 -24.859,-37.872 -23.203,-54.403 z" />
        </g>
      </g>
    </g>
  </g>
</svg>
